<svg width="565" height="548" viewBox="0 0 565 548" fill="none" xmlns="http://www.w3.org/2000/svg">
<path d="M470.042 517.44L469.064 532.638L449.174 525.039L457.324 513.642L470.042 517.44Z" fill="#FEB8B8"/>
<path d="M542.433 512.501L541.453 527.318L530.367 529.218L523.845 521.999L531.345 507.941L542.433 512.501Z" fill="#FEB8B8"/>
<path d="M550.585 323.299C550.585 323.299 559.389 335.457 548.302 354.073C537.215 372.69 523.846 390.926 523.846 390.926L499.061 445.635C499.061 445.635 486.344 499.204 483.409 500.724C480.474 502.243 478.844 496.165 480.474 502.623C482.104 509.081 481.126 508.702 479.822 509.083C478.518 509.465 474.931 508.704 476.235 511.363C477.539 514.023 478.518 514.023 475.909 514.023C473.3 514.023 472.322 512.124 472.322 514.783C472.322 517.442 470.039 523.521 470.039 523.521C470.039 523.521 454.061 518.202 453.409 515.922C452.757 513.642 457.648 512.503 456.67 510.224C455.692 507.945 455.366 507.944 455.366 504.525C455.366 501.107 457.323 500.346 457.323 500.346C457.323 500.346 458.953 499.586 458.301 498.066C457.649 496.546 455.04 497.307 458.301 495.407C461.562 493.507 474.932 435.378 474.932 435.378C474.932 435.378 474.932 406.5 479.171 397.004C483.41 387.507 480.149 319.879 490.261 319.12C500.373 318.36 550.585 323.299 550.585 323.299Z" fill="#2F2E41"/>
<path d="M547.324 344.955L545.367 403.842C545.367 403.842 555.15 460.831 551.889 478.307C548.628 495.783 550.911 493.504 548.954 496.544C546.997 499.583 545.367 498.063 546.997 500.723C548.627 503.383 549.603 504.142 546.997 507.183C544.392 510.224 543.085 517.442 543.085 517.442L526.454 515.542C526.454 515.542 530.693 506.804 529.06 504.904C527.426 503.004 523.19 506.044 526.454 501.869C529.719 497.693 531.672 499.589 529.715 497.69C527.758 495.79 524.824 496.55 527.432 493.51C530.041 490.471 532.977 490.475 530.367 489.331C527.757 488.188 524.822 489.331 526.128 487.051C527.434 484.772 529.063 482.113 529.063 482.113L525.15 447.54C525.15 447.54 520.585 436.142 521.889 431.203C523.194 426.264 516.344 385.612 516.344 385.612L547.324 344.955Z" fill="#2F2E41"/>
<path d="M540.152 520.099C540.152 520.099 543.413 516.3 544.391 518.58C545.369 520.859 552.541 541.375 548.303 542.894C544.066 544.414 537.869 545.93 534.608 544.794C531.347 543.657 524.5 538.333 516.348 538.333C508.196 538.333 501.348 534.154 501.348 532.635C501.348 531.115 500.044 521.997 506.239 521.997C512.434 521.997 523.848 513.638 523.848 513.638C523.848 513.638 526.453 507.559 527.76 507.94C529.068 508.321 528.086 520.477 528.086 520.477C528.086 520.477 535.585 528.837 540.152 520.099Z" fill="#2F2E41"/>
<path d="M467.76 525.038C467.76 525.038 470.695 516.68 473.63 518.577C476.565 520.475 474.608 544.03 474.608 544.03C474.608 544.03 472.002 548.969 464.499 547.829C456.996 546.69 437.109 544.03 432.543 545.17C427.977 546.309 415.587 539.851 418.848 531.112C418.848 531.112 420.478 526.173 428.304 526.553C436.131 526.933 450.478 515.915 450.478 515.915C450.478 515.915 452.761 508.317 453.413 509.076C454.065 509.836 454.717 523.134 454.717 523.134C454.717 523.134 463.195 529.597 467.76 525.038Z" fill="#2F2E41"/>
<path d="M510.477 174.75C520.922 174.75 529.39 164.884 529.39 152.714C529.39 140.544 520.922 130.678 510.477 130.678C500.032 130.678 491.564 140.544 491.564 152.714C491.564 164.884 500.032 174.75 510.477 174.75Z" fill="#FEB8B8"/>
<path d="M525.15 154.233C525.15 154.233 535.259 177.788 538.846 180.068C542.432 182.348 514.39 196.406 514.39 196.406C514.39 196.406 509.825 173.23 504.281 168.292C498.738 163.353 525.15 154.233 525.15 154.233Z" fill="#FEB8B8"/>
<path d="M496.129 346.854L494.825 361.291C494.825 361.291 480.804 355.593 485.369 344.955L496.129 346.854Z" fill="#FEB8B8"/>
<path d="M490.588 325.199C500.37 337.353 552.215 327.095 552.215 327.095L551.566 318.357L558.087 310.385L556.132 273.15C556.132 273.15 561.997 255.675 562.975 229.08C563.034 227.446 562.949 225.808 562.722 224.194C559.361 200.37 526.065 185.026 525.151 185.386C524.691 185.563 519.79 188.539 514.675 191.669C508.803 195.263 502.654 199.064 502.654 199.064C494.827 202.489 496.132 257.198 493.521 262.136C490.91 267.074 493.521 284.164 493.521 284.164L490.588 300.5C490.588 300.5 480.803 313.044 490.588 325.199Z" fill="#F0F0F0"/>
<path opacity="0.1" d="M522.191 204.588C522.191 204.588 531.321 236.501 529.364 258.157C527.408 279.813 506.213 341.741 506.213 341.741L499.042 346.3V356.937L493.996 341.013L507.872 307.21C507.872 307.21 490.558 190.531 522.191 204.588Z" fill="black"/>
<path opacity="0.1" d="M513.627 195.012C523.088 188.935 537.437 204.898 552.435 221.988C557.822 228.124 560.937 227.507 562.724 224.193C559.362 200.369 526.067 185.025 525.152 185.385C524.692 185.562 519.791 188.538 514.676 191.668L513.627 195.012Z" fill="black"/>
<path d="M513.632 192.076L517.545 179.538C517.545 179.538 544.284 164.721 561.892 179.538L564.827 200.814C564.827 200.814 567.432 236.146 552.435 219.05C537.439 201.954 523.087 185.996 513.632 192.076Z" fill="#F0F0F0"/>
<path d="M521.238 199.444C521.238 199.444 530.369 231.358 528.412 253.014C526.455 274.67 505.26 336.597 505.26 336.597L498.086 341.159V351.797L483.087 346.858L486.348 334.321C486.348 334.321 481.13 326.723 484.718 324.443C488.305 322.163 487.652 309.626 487.652 309.626C487.652 309.626 489.608 185.387 521.238 199.444Z" fill="#F0F0F0"/>
<path d="M527.338 161.938C527.029 160.235 527.07 158.403 526.37 156.866C525.319 154.561 522.904 153.597 520.672 153.369C517.823 153.081 514.952 153.655 512.099 153.428C509.246 153.2 506.198 151.933 504.778 149.042C504.211 147.888 503.932 146.53 503.18 145.53C501.616 143.448 498.766 143.77 496.518 144.662C494.271 145.554 491.927 146.857 489.629 146.16C487.697 139.862 490.076 132.598 494.191 127.934C498.305 123.271 503.854 120.762 509.366 118.891C516.635 116.424 524.816 114.966 531.499 119.111C541.191 125.121 544.61 141.028 543.717 152.884C543.379 157.366 542.826 162.441 539.716 165.467C535.159 169.902 528.714 169.521 527.338 161.938Z" fill="#2F2E41"/>
<path d="M408.672 0.270111H0.175049V305.087H408.672V0.270111Z" fill="#D7D7D7"/>
<path d="M398.327 38.5015H13.1917V287.054H398.327V38.5015Z" fill="white"/>
<path d="M408.497 0H0V20.2198H408.497V0Z" fill="#3BA88E"/>
<path d="M12.897 14.0855C14.6736 14.0855 16.1138 12.4075 16.1138 10.3376C16.1138 8.2677 14.6736 6.58972 12.897 6.58972C11.1205 6.58972 9.6803 8.2677 9.6803 10.3376C9.6803 12.4075 11.1205 14.0855 12.897 14.0855Z" fill="white"/>
<path d="M25.106 14.0855C26.8825 14.0855 28.3227 12.4075 28.3227 10.3376C28.3227 8.2677 26.8825 6.58972 25.106 6.58972C23.3294 6.58972 21.8892 8.2677 21.8892 10.3376C21.8892 12.4075 23.3294 14.0855 25.106 14.0855Z" fill="white"/>
<path d="M37.3149 14.0855C39.0914 14.0855 40.5316 12.4075 40.5316 10.3376C40.5316 8.2677 39.0914 6.58972 37.3149 6.58972C35.5383 6.58972 34.0981 8.2677 34.0981 10.3376C34.0981 12.4075 35.5383 14.0855 37.3149 14.0855Z" fill="white"/>
<path d="M80.5722 73.3392L55.0968 102.65L80.5722 131.961L86.3042 125.282L67.0405 102.835L86.4652 80.2029L80.5722 73.3392Z" fill="#3BA88E"/>
<path d="M101.446 73.3392L126.921 102.65L101.446 131.961L95.7139 125.282L114.979 102.836L95.5529 80.2029L101.446 73.3392Z" fill="#3BA88E"/>
<path d="M183.848 80.6949C181.764 80.6949 180.075 82.0913 180.075 83.813C180.075 85.5348 181.764 86.9312 183.848 86.9312H361.696C363.78 86.9312 365.469 85.5348 365.469 83.813C365.469 82.0913 363.78 80.6949 361.696 80.6949H183.848Z" fill="#D7D7D7"/>
<path d="M359.928 251.532H60.7426C57.6842 251.532 55.2057 249.474 55.2023 246.939V185.415C55.2057 182.88 57.6842 180.823 60.7426 180.823H359.928C362.987 180.823 365.465 182.88 365.468 185.415V246.939C365.466 249.474 362.987 251.529 359.928 251.532ZM60.7426 182.658C58.9074 182.658 57.4203 183.893 57.4183 185.413V246.937C57.4183 248.458 58.9074 249.691 60.7426 249.692H359.928C361.763 249.692 363.25 248.458 363.252 246.937V185.415C363.252 183.894 361.763 182.661 359.928 182.66L60.7426 182.658Z" fill="#D7D7D7"/>
<path d="M91.5518 231.746C98.9444 231.746 104.937 224.764 104.937 216.151C104.937 207.538 98.9444 200.555 91.5518 200.555C84.1593 200.555 78.1664 207.538 78.1664 216.151C78.1664 224.764 84.1593 231.746 91.5518 231.746Z" fill="#D7D7D7"/>
<path d="M129.304 203.678C128.594 203.677 127.913 204.004 127.411 204.588C126.908 205.172 126.625 205.965 126.625 206.792C126.624 207.619 126.905 208.413 127.406 208.998C127.907 209.584 128.588 209.913 129.297 209.914H255.476C256.186 209.914 256.866 209.586 257.368 209.001C257.87 208.416 258.152 207.623 258.152 206.796C258.152 205.969 257.87 205.176 257.368 204.591C256.866 204.007 256.186 203.678 255.476 203.678H129.304Z" fill="#3BA88E"/>
<path d="M129.304 222.388C128.953 222.387 128.605 222.467 128.28 222.624C127.955 222.78 127.66 223.009 127.411 223.298C126.908 223.882 126.625 224.675 126.625 225.502C126.624 226.329 126.905 227.122 127.406 227.708C127.907 228.294 128.588 228.623 129.297 228.624H183.595C184.305 228.625 184.986 228.298 185.489 227.714C185.991 227.13 186.274 226.337 186.275 225.51C186.276 224.683 185.995 223.889 185.494 223.304C184.992 222.718 184.312 222.389 183.602 222.388H129.304Z" fill="#3BA88E"/>
<path d="M182.549 99.3759C181.877 99.439 181.249 99.7949 180.792 100.373C180.334 100.951 180.08 101.708 180.08 102.494C180.08 103.28 180.334 104.038 180.792 104.615C181.249 105.193 181.877 105.549 182.549 105.612H299.107C299.779 105.549 300.407 105.193 300.864 104.615C301.322 104.038 301.576 103.28 301.576 102.494C301.576 101.708 301.322 100.951 300.864 100.373C300.407 99.7949 299.779 99.439 299.107 99.3759H182.549Z" fill="#D7D7D7"/>
<path d="M183.316 118.057C181.526 118.057 180.075 119.453 180.075 121.175C180.075 122.897 181.526 124.293 183.316 124.293H336.103C337.893 124.293 339.344 122.897 339.344 121.175C339.344 119.453 337.893 118.057 336.103 118.057H183.316Z" fill="#D7D7D7"/>
</svg>
