<svg width="44" height="23" viewBox="0 0 44 23" fill="none" xmlns="http://www.w3.org/2000/svg">
<path d="M39.2638 0.713287H4.71166C2.11043 0.713287 0 1.77894 0 3.09242V20.5394C0 21.8529 2.11043 22.9185 4.71166 22.9185H39.2638C41.865 22.9185 43.9755 21.8529 43.9755 20.5394V3.09242C43.9755 1.77894 41.865 0.713287 39.2638 0.713287ZM27.2196 19.7315C26.3951 19.8058 26.0908 19.5481 26.0908 19.335C26.0908 19.0673 26.1104 17.6993 26.1104 16.594C26.1104 15.8208 25.6 15.3301 25.0012 15.0724C28.6331 14.8691 32.4613 14.6164 32.4613 11.4491C32.4613 10.547 31.8233 10.096 30.7828 9.51609C30.9497 9.30296 31.5092 8.42565 30.6159 7.28565C29.2515 7.07252 26.1301 8.17287 26.1301 8.17287C24.8344 7.98948 23.4307 7.8953 22.0466 7.8953C20.6626 7.8953 19.2589 7.98948 17.9632 8.17287C17.9632 8.17287 14.8417 7.07252 13.4773 7.28565C12.584 8.42069 13.1337 9.298 13.3104 9.51609C12.2699 10.096 11.7791 10.547 11.7791 11.4491C11.7791 14.6015 15.4405 14.8691 19.0724 15.0724C18.6012 15.2855 18.1791 15.6523 18.0319 16.1777C17.0994 16.3908 14.7141 16.7576 13.2908 15.4887C12.3975 14.7056 10.7877 14.6411 10.7877 14.6411C9.19755 14.6312 10.6798 15.1467 10.6798 15.1467C11.7399 15.3945 12.4859 16.3462 12.4859 16.3462C13.438 17.8183 17.9926 17.3226 17.9926 17.3226C17.9926 18.0116 18.0123 19.1318 18.0123 19.335C18.0123 19.5481 17.7178 19.8058 16.8834 19.7315C10.4049 18.6361 5.86994 15.5234 5.86994 11.8853C5.86994 7.33521 12.7607 3.88051 21.7718 3.88051C30.7828 3.88051 38.0859 7.33521 38.0859 11.8853C38.0957 15.5234 33.6982 18.6411 27.2196 19.7315ZM17.5902 16.7031C17.4037 16.7229 17.227 16.6832 17.2074 16.6188C17.1877 16.5444 17.3153 16.48 17.5018 16.4602C17.6883 16.4503 17.865 16.4899 17.8847 16.5544C17.9141 16.6188 17.7865 16.6832 17.5902 16.7031ZM16.6577 16.6585C16.6577 16.7229 16.5104 16.7774 16.3141 16.7774C16.0982 16.7873 15.9509 16.7328 15.9509 16.6585C15.9509 16.594 16.0982 16.5395 16.2945 16.5395C16.481 16.5296 16.6577 16.5841 16.6577 16.6585ZM15.3129 16.6039C15.2736 16.6684 15.0773 16.6981 14.9104 16.6684C14.7239 16.6485 14.5963 16.5742 14.6356 16.5098C14.6748 16.4453 14.8712 16.4156 15.038 16.4354C15.2344 16.4651 15.362 16.5395 15.3129 16.6039ZM14.1055 16.3363C14.0172 16.3908 13.8307 16.3809 13.6834 16.3065C13.5362 16.2421 13.4969 16.1479 13.5951 16.1033C13.6834 16.0488 13.8699 16.0587 14.0172 16.1331C14.1448 16.1975 14.1939 16.2966 14.1055 16.3363ZM13.2123 15.8852C13.1239 15.915 12.9571 15.8852 12.8491 15.8109C12.7411 15.7365 12.7411 15.6523 12.8491 15.6176C12.9571 15.573 13.1239 15.6077 13.2123 15.682C13.3202 15.7564 13.3202 15.8456 13.2123 15.8852ZM12.5742 15.4044C12.4859 15.4491 12.3386 15.4243 12.2307 15.3747C12.1227 15.3103 12.1031 15.2359 12.1914 15.2012C12.2798 15.1566 12.427 15.1814 12.535 15.231C12.6429 15.2954 12.6626 15.3698 12.5742 15.4044ZM11.9166 15.0377C11.8773 15.0823 11.7497 15.0922 11.6417 15.0575C11.5141 15.0278 11.4552 14.9732 11.4945 14.9286C11.5337 14.8989 11.6417 14.884 11.7693 14.9088C11.8969 14.9435 11.9558 14.998 11.9166 15.0377Z" fill="black"/>
</svg>
